# xmcd CD database file
#
# Track frame offsets:
#	150
#	27553
#	56718
#	84053
#	114785
#	140477
#	160242
#	191524
#	214831
#	239740
#	265154
#	288123
#	317055
#
# Disc length: 4758 seconds
#
# Revision: 2
# Processed by: cddbd v1.5.2PL0 Copyright (c) Steve Scherf et al.
# Submitted via: CDex 1.70beta2
#
DISCID=b512940d
DTITLE=Various Artist - Night Blues Magic
DYEAR=2001
DGENRE=Blues
TTITLE0=Larry Carlton and Terri McMillan - Cold Day in Hell
TTITLE1=Tony Joe White - Down Again
TTITLE2=Billy Branch -  If Heartaches Were Nickels
TTITLE3=Gary Moore - Parisienne Walkways
TTITLE4=John Lee Hooker and Carlos Santana - The Healer
TTITLE5=Kenny Neal - Blues Fallin` Down Like Rain
TTITLE6=Larry Carlton - Newer Say Naw
TTITLE7=J.J. Cale - Sensitive Kind
TTITLE8=Maria Muldaur - Fanning The Flames
TTITLE9=Michael Osborn - Nightmare Blues
TTITLE10=Coco Montoya - Good Days, Bad Days
TTITLE11=Savoy Brown - Bad Shape
TTITLE12=Stevie Ray Vaughan - Riviera Paradise
EXTD=YEAR: 2001
EXTT0=
EXTT1=
EXTT2=
EXTT3=
EXTT4=
EXTT5=
EXTT6=
EXTT7=
EXTT8=
EXTT9=
EXTT10=
EXTT11=
EXTT12=
PLAYORDER=
